<svg width="34" height="34" viewBox="0 0 34 34" fill="none" xmlns="http://www.w3.org/2000/svg">
<g id="ant-design:phone-filled">
<path id="Vector" d="M4.59531 7.64336L8.13144 4.11055C8.38089 3.86001 8.67737 3.66122 9.00387 3.52561C9.33037 3.39 9.68044 3.32023 10.034 3.32031C10.7545 3.32031 11.4318 3.60254 11.9398 4.11055L15.7449 7.91562C15.9955 8.16507 16.1942 8.46155 16.3299 8.78805C16.4655 9.11455 16.5352 9.46462 16.5352 9.81816C16.5352 10.5387 16.2529 11.216 15.7449 11.724L12.9625 14.5064C13.6138 15.942 14.5193 17.248 15.6354 18.3613C16.7486 19.4801 18.0544 20.3889 19.4902 21.0441L22.2727 18.2617C22.5221 18.0112 22.8186 17.8124 23.1451 17.6768C23.4716 17.5412 23.8217 17.4714 24.1752 17.4715C24.8957 17.4715 25.573 17.7537 26.0811 18.2617L29.8895 22.0635C30.1403 22.3134 30.3393 22.6104 30.4749 22.9375C30.6105 23.2646 30.6801 23.6153 30.6797 23.9693C30.6797 24.6898 30.3975 25.3672 29.8895 25.8752L26.36 29.4047C25.5498 30.2182 24.4309 30.6797 23.282 30.6797C23.0396 30.6797 22.8072 30.6598 22.5781 30.6199C18.1023 29.8828 13.6631 27.5021 10.0805 23.9229C6.50117 20.3469 4.12383 15.9109 3.37676 11.4219C3.15097 10.0506 3.60586 8.63945 4.59531 7.64336Z" fill="white"/>
</g>
</svg>
