<svg width="32" height="27" viewBox="0 0 32 27" fill="none" xmlns="http://www.w3.org/2000/svg">
<path id="Vector" d="M30.7373 19.1413H9.49549L10.562 17.103L28.2831 17.0729C28.8824 17.0729 29.3961 16.6713 29.5031 16.1157L31.9572 3.22648C32.0214 2.88843 31.9251 2.54035 31.6897 2.27594C31.5733 2.14581 31.4282 2.04099 31.2643 1.96874C31.1005 1.8965 30.9219 1.85856 30.7408 1.85757L8.19708 1.78728L8.00446 0.937151C7.88318 0.394942 7.36239 0 6.77026 0H1.25917C0.925216 0 0.604942 0.124477 0.368802 0.346047C0.132662 0.567618 0 0.868132 0 1.18148C0 1.49483 0.132662 1.79534 0.368802 2.01691C0.604942 2.23848 0.925216 2.36296 1.25917 2.36296H5.75008L6.59191 6.11826L8.66436 15.5333L5.99621 19.6199C5.85765 19.7954 5.77419 20.0038 5.75528 20.2214C5.73637 20.4391 5.78276 20.6574 5.8892 20.8516C6.10322 21.2499 6.53483 21.5009 7.01282 21.5009H9.25293C8.77536 22.0961 8.51742 22.821 8.51812 23.566C8.51812 25.4604 10.159 27 12.1779 27C14.1969 27 15.8377 25.4604 15.8377 23.566C15.8377 22.8196 15.5737 22.0933 15.1029 21.5009H20.8494C20.3718 22.0961 20.1139 22.821 20.1146 23.566C20.1146 25.4604 21.7554 27 23.7744 27C25.7933 27 27.4342 25.4604 27.4342 23.566C27.4342 22.8196 27.1702 22.0933 26.6994 21.5009H30.7408C31.4328 21.5009 32 20.9721 32 20.3194C31.9979 20.0064 31.864 19.7069 31.6274 19.4862C31.3909 19.2655 31.0709 19.1415 30.7373 19.1413ZM8.72144 4.11677L29.2605 4.18036L27.2487 14.7501L11.1149 14.7769L8.72144 4.11677ZM12.1779 24.6237C11.5572 24.6237 11.0507 24.1484 11.0507 23.566C11.0507 22.9836 11.5572 22.5084 12.1779 22.5084C12.7986 22.5084 13.3051 22.9836 13.3051 23.566C13.3051 23.8465 13.1863 24.1155 12.9749 24.3139C12.7636 24.5122 12.4769 24.6237 12.1779 24.6237ZM23.7744 24.6237C23.1537 24.6237 22.6472 24.1484 22.6472 23.566C22.6472 22.9836 23.1537 22.5084 23.7744 22.5084C24.3951 22.5084 24.9016 22.9836 24.9016 23.566C24.9016 23.8465 24.7828 24.1155 24.5714 24.3139C24.36 24.5122 24.0733 24.6237 23.7744 24.6237Z" fill="white"/>
</svg>
