<svg width="32" height="31" viewBox="0 0 32 31" fill="none" xmlns="http://www.w3.org/2000/svg">
<g id="Group 8">
<line id="Line 7" x1="15.3999" y1="13" x2="15.3999" y2="28.6" stroke="#E5BF55" stroke-width="2"/>
<path id="Polygon 1" d="M15.259 17.4818C15.451 17.6609 15.749 17.6609 15.941 17.4818L28.1818 6.06546C28.5138 5.75588 28.2947 5.19981 27.8408 5.19981H3.3592C2.9053 5.19981 2.68624 5.75588 3.01818 6.06546L15.259 17.4818Z" fill="#E5BF55"/>
<path id="Polygon 2" d="M15.6001 27.4004L25.9924 30.1004H5.20779L15.6001 27.4004Z" fill="#E5BF55"/>
<g id="Group 7">
<path id="Subtract" fill-rule="evenodd" clip-rule="evenodd" d="M24.4002 6.11037C25.7209 5.99748 26.7 4.83535 26.5871 3.51468C26.548 3.05708 26.3829 2.64049 26.1289 2.29613C26.0567 2.33657 25.9749 2.36264 25.887 2.37015C25.5569 2.39837 25.2663 2.1536 25.2381 1.82343C25.2306 1.7356 25.2424 1.65057 25.27 1.57255C24.8875 1.38068 24.449 1.2887 23.9914 1.32781C22.6707 1.44071 21.6916 2.60284 21.8045 3.92351C21.9174 5.24417 23.0795 6.22327 24.4002 6.11037Z" fill="#E5BF55"/>
<path id="Vector 2" d="M23.5722 3.33763C23.5984 3.77867 23.9773 4.11495 24.4183 4.08871C24.8593 4.06247 25.1956 3.68366 25.1694 3.24261C25.1431 2.80157 24.7643 2.4653 24.3233 2.49153C23.8822 2.51777 23.546 2.89658 23.5722 3.33763ZM28.3561 1.56542C28.4101 1.62823 28.5048 1.63536 28.5676 1.58135C28.6304 1.52734 28.6375 1.43263 28.5835 1.36982L28.3561 1.56542ZM24.4854 3.3869C24.9476 2.83962 25.7018 2.09701 26.461 1.64139C26.8412 1.41321 27.2102 1.26463 27.5367 1.23923C27.8551 1.21447 28.1329 1.30594 28.3561 1.56542L28.5835 1.36982C28.2901 1.02856 27.9142 0.908966 27.5134 0.940138C27.1207 0.970685 26.705 1.14505 26.3066 1.38416C25.5085 1.86313 24.7298 2.63251 24.2562 3.19334L24.4854 3.3869Z" fill="#E5BF55"/>
</g>
</g>
</svg>
