<svg width="29" height="29" viewBox="0 0 29 29" fill="none" xmlns="http://www.w3.org/2000/svg">
<path id="Vector" d="M8.9246 0.831274L8.92519 0.831247C10.3696 0.7669 10.8347 0.75001 14.4966 0.75L8.9246 0.831274ZM8.9246 0.831274C7.46271 0.899828 6.45539 1.13028 5.56818 1.47525C4.63437 1.8267 3.78848 2.37762 3.08947 3.08958C2.37802 3.78887 1.82722 4.63458 1.4753 5.56803C1.13035 6.45348 0.898124 7.46257 0.831262 8.91979L0.831247 8.92015C0.766881 10.3684 0.75 10.8316 0.75 14.5017C0.75 18.1684 0.76688 18.6316 0.831247 20.0765L0.831275 20.0771C0.899864 21.538 1.13052 22.5456 1.47576 23.4331L1.47582 23.4333C1.83331 24.3506 2.3122 25.1331 3.08934 25.9103C3.86481 26.6875 4.64749 27.1683 5.56533 27.5243C5.56536 27.5243 5.56539 27.5243 5.56541 27.5243L5.65581 27.2913L8.9246 0.831274ZM14.5017 0.75C18.1671 0.750016 18.6289 0.76691 20.0748 0.831247L20.0751 0.831262C21.5341 0.898125 22.5431 1.13036 23.4317 1.47519C24.3657 1.82635 25.2117 2.37734 25.9105 3.0896C26.6221 3.78888 27.1729 4.63463 27.5247 5.56813C27.5249 5.56855 27.525 5.56895 27.5252 5.56937L27.2913 5.6575L14.5017 0.75ZM14.5017 0.75C14.5011 0.75 14.5006 0.75 14.5 0.75H14.5017ZM13.0401 3.68338V3.68023C10.7431 3.68288 10.2557 3.70047 9.05751 3.75567L13.0401 3.68338ZM13.0401 3.68338H13.2901H14.5017C18.1054 3.68338 18.5276 3.6952 19.9441 3.76073L19.9445 3.76075C21.2326 3.81855 21.9215 4.03368 22.373 4.20817L13.0401 3.68338ZM21.7073 5.42438C21.4617 5.42438 21.2186 5.47274 20.9917 5.56672C20.7648 5.6607 20.5587 5.79844 20.385 5.97208C20.2114 6.14573 20.0736 6.35188 19.9797 6.57876C19.8857 6.80564 19.8373 7.0488 19.8373 7.29437C19.8373 7.53995 19.8857 7.78311 19.9797 8.00999C20.0736 8.23687 20.2114 8.44302 20.385 8.61666C20.5587 8.79031 20.7648 8.92805 20.9917 9.02203C21.2186 9.11601 21.4617 9.16438 21.7073 9.16438C22.2033 9.16438 22.6789 8.96736 23.0296 8.61666C23.3803 8.26597 23.5773 7.79033 23.5773 7.29437C23.5773 6.79842 23.3803 6.32278 23.0296 5.97209C22.6789 5.62139 22.2033 5.42438 21.7073 5.42438ZM14.5056 7.31778C13.5529 7.30292 12.6067 7.47773 11.7222 7.83204C10.8377 8.18635 10.0325 8.71308 9.35349 9.38156C8.67449 10.05 8.13527 10.8469 7.7672 11.7258C7.39913 12.6047 7.20958 13.548 7.20958 14.5008C7.20958 15.4537 7.39913 16.397 7.7672 17.2759C8.13527 18.1548 8.67449 18.9516 9.35349 19.6201C10.0325 20.2886 10.8377 20.8153 11.7222 21.1696C12.6067 21.524 13.5529 21.6988 14.5056 21.6839C16.3912 21.6545 18.1897 20.8848 19.5128 19.5409C20.8359 18.197 21.5775 16.3867 21.5775 14.5008C21.5775 12.615 20.8359 10.8047 19.5128 9.46081C18.1897 8.11692 16.3912 7.3472 14.5056 7.31778ZM14.5017 10.2494C15.629 10.2494 16.7102 10.6973 17.5073 11.4944C18.3044 12.2915 18.7523 13.3727 18.7523 14.5C18.7523 15.6273 18.3044 16.7085 17.5073 17.5056C16.7102 18.3027 15.629 18.7506 14.5017 18.7506C13.3744 18.7506 12.2932 18.3027 11.4961 17.5056C10.699 16.7085 10.2511 15.6273 10.2511 14.5C10.2511 13.3727 10.699 12.2915 11.4961 11.4944C12.2932 10.6973 13.3744 10.2494 14.5017 10.2494Z" fill="white" stroke="white" stroke-width="0.5"/>
</svg>
