<svg width="25" height="26" viewBox="0 0 25 26" fill="none" xmlns="http://www.w3.org/2000/svg">
<path id="Vector" d="M12.5 0C11.1265 0 9.78388 0.401282 8.64187 1.1531C7.49987 1.90492 6.60978 2.97351 6.08417 4.22374C5.55856 5.47398 5.42104 6.8497 5.68899 8.17693C5.95694 9.50417 6.61834 10.7233 7.58954 11.6802C8.56073 12.6371 9.79812 13.2887 11.1452 13.5527C12.4923 13.8167 13.8886 13.6812 15.1575 13.1634C16.4265 12.6455 17.511 11.7686 18.2741 10.6434C19.0372 9.5182 19.4444 8.19535 19.4444 6.84211C19.4444 5.02747 18.7128 3.28715 17.4105 2.00401C16.1081 0.720863 14.3418 0 12.5 0ZM12.5 10.9474C11.6759 10.9474 10.8703 10.7066 10.1851 10.2555C9.49992 9.80441 8.96587 9.16326 8.6505 8.41312C8.33514 7.66298 8.25262 6.83755 8.41339 6.04121C8.57417 5.24487 8.971 4.51338 9.55372 3.93925C10.1364 3.36511 10.8789 2.97413 11.6871 2.81572C12.4954 2.65732 13.3332 2.73862 14.0945 3.04934C14.8559 3.36005 15.5066 3.88624 15.9645 4.56134C16.4223 5.23645 16.6667 6.03016 16.6667 6.84211C16.6667 7.93089 16.2277 8.97508 15.4463 9.74497C14.6649 10.5149 13.6051 10.9474 12.5 10.9474ZM25 26V24.6316C25 22.0911 23.9757 19.6546 22.1524 17.8582C20.3292 16.0618 17.8563 15.0526 15.2778 15.0526H9.72222C7.14373 15.0526 4.67084 16.0618 2.84757 17.8582C1.0243 19.6546 0 22.0911 0 24.6316V26H2.77778V24.6316C2.77778 22.8169 3.50942 21.0766 4.81176 19.7935C6.11409 18.5103 7.88044 17.7895 9.72222 17.7895H15.2778C17.1196 17.7895 18.8859 18.5103 20.1882 19.7935C21.4906 21.0766 22.2222 22.8169 22.2222 24.6316V26H25Z" fill="white"/>
</svg>
