<svg width="34" height="34" viewBox="0 0 34 34" fill="none" xmlns="http://www.w3.org/2000/svg">
<g id="clarity:email-line" clip-path="url(#clip0_943_45)">
<path id="Vector" d="M30.222 5.66699H3.77756C3.2766 5.66699 2.79615 5.866 2.44191 6.22023C2.08768 6.57447 1.88867 7.05492 1.88867 7.55588V26.4448C1.88867 26.9457 2.08768 27.4262 2.44191 27.7804C2.79615 28.1346 3.2766 28.3337 3.77756 28.3337H30.222C30.723 28.3337 31.2034 28.1346 31.5577 27.7804C31.9119 27.4262 32.1109 26.9457 32.1109 26.4448V7.55588C32.1109 7.05492 31.9119 6.57447 31.5577 6.22023C31.2034 5.866 30.723 5.66699 30.222 5.66699ZM28.7676 26.4448H5.34534L11.9564 19.607L10.5964 18.2942L3.77756 25.3492V8.99144L15.517 20.6742C15.8709 21.026 16.3497 21.2235 16.8487 21.2235C17.3477 21.2235 17.8264 21.026 18.1803 20.6742L30.222 8.69866V25.2264L23.2709 18.2753L21.9392 19.607L28.7676 26.4448ZM5.01478 7.55588H28.692L16.8487 19.3331L5.01478 7.55588Z" fill="white"/>
</g>
<defs>
<clipPath id="clip0_943_45">
<rect width="34" height="34" fill="white"/>
</clipPath>
</defs>
</svg>
