<svg width="25" height="28" viewBox="0 0 25 28" fill="none" xmlns="http://www.w3.org/2000/svg">
<g id="fa-brands:tiktok" clip-path="url(#clip0_933_30)">
<path id="Vector" d="M25.0001 11.4795C22.5433 11.4852 20.1468 10.7344 18.1491 9.33297V19.1067C18.1484 20.9169 17.5838 22.6838 16.5308 24.171C15.4778 25.6583 13.9866 26.7951 12.2565 27.4294C10.5265 28.0636 8.64009 28.1652 6.84956 27.7204C5.05903 27.2757 3.44972 26.3058 2.23683 24.9405C1.02394 23.5753 0.265273 21.8796 0.0622752 20.0804C-0.140722 18.2811 0.221626 16.4641 1.10087 14.8721C1.98011 13.2801 3.33434 11.9891 4.98247 11.1718C6.63061 10.3544 8.49408 10.0496 10.3237 10.2982V15.2141C9.48648 14.956 8.58743 14.9637 7.75495 15.2363C6.92248 15.5088 6.19916 16.0321 5.68829 16.7316C5.17743 17.431 4.90514 18.2707 4.91031 19.1308C4.91547 19.991 5.19784 20.8275 5.71708 21.521C6.23632 22.2145 6.96588 22.7294 7.80157 22.9923C8.63726 23.2552 9.53635 23.2526 10.3704 22.9849C11.2045 22.7171 11.931 22.198 12.446 21.5015C12.9611 20.805 13.2384 19.9669 13.2384 19.1067V0H18.1491C18.1457 0.406405 18.1804 0.812255 18.2529 1.21242C18.4235 2.10573 18.7783 2.95554 19.2956 3.70985C19.8128 4.46417 20.4817 5.10715 21.2612 5.59945C22.3703 6.3181 23.6705 6.70113 25.0001 6.70086V11.4795Z" fill="white"/>
</g>
<defs>
<clipPath id="clip0_933_30">
<rect width="25" height="28" fill="white"/>
</clipPath>
</defs>
</svg>
